<svg width="38" height="16" viewBox="0 0 38 16" fill="none" xmlns="http://www.w3.org/2000/svg">
<path d="M1 12H0.5V12.5H1V12ZM37.3536 12.3536C37.5488 12.1583 37.5488 11.8417 37.3536 11.6464L34.1716 8.46447C33.9763 8.2692 33.6597 8.2692 33.4645 8.46447C33.2692 8.65973 33.2692 8.97631 33.4645 9.17157L36.2929 12L33.4645 14.8284C33.2692 15.0237 33.2692 15.3403 33.4645 15.5355C33.6597 15.7308 33.9763 15.7308 34.1716 15.5355L37.3536 12.3536ZM0.5 0V12H1.5V0H0.5ZM1 12.5H37V11.5H1V12.5Z" fill="white"/>
</svg>
