<svg width="38" height="16" viewBox="0 0 38 16" fill="none" xmlns="http://www.w3.org/2000/svg">
<path d="M37 12L37 12.5L37.5 12.5L37.5 12L37 12ZM0.646446 11.6464C0.451183 11.8417 0.451183 12.1583 0.646446 12.3536L3.82843 15.5355C4.02369 15.7308 4.34027 15.7308 4.53553 15.5355C4.7308 15.3403 4.7308 15.0237 4.53553 14.8284L1.70711 12L4.53553 9.17158C4.7308 8.97631 4.7308 8.65973 4.53553 8.46447C4.34027 8.26921 4.02369 8.26921 3.82843 8.46447L0.646446 11.6464ZM36.5 -2.81731e-06L36.5 12L37.5 12L37.5 -2.90473e-06L36.5 -2.81731e-06ZM37 11.5L1 11.5L1 12.5L37 12.5L37 11.5Z" fill="white"/>
</svg>
