<svg width="22" height="23" viewBox="0 0 22 23" fill="none" xmlns="http://www.w3.org/2000/svg">
<path d="M1 15.5H0V16.5H1V15.5ZM21.7071 16.2071C22.0976 15.8166 22.0976 15.1834 21.7071 14.7929L15.3431 8.42893C14.9526 8.03841 14.3195 8.03841 13.9289 8.42893C13.5384 8.81946 13.5384 9.45262 13.9289 9.84315L19.5858 15.5L13.9289 21.1569C13.5384 21.5474 13.5384 22.1805 13.9289 22.5711C14.3195 22.9616 14.9526 22.9616 15.3431 22.5711L21.7071 16.2071ZM0 0.5V15.5H2V0.5H0ZM1 16.5H21V14.5H1V16.5Z" fill="white"/>
</svg>
