<svg width="38" height="37" viewBox="0 0 38 37" fill="none" xmlns="http://www.w3.org/2000/svg">
<line x1="37" y1="16.75" x2="2" y2="16.75" stroke="white" stroke-width="1.5"/>
<path d="M2.19418 30L2.19418 2" stroke="white" stroke-width="1.5"/>
<path d="M19.1942 30L19.1942 2" stroke="white" stroke-width="1.5"/>
<path d="M36.2715 35L36.2715 2" stroke="white" stroke-width="1.5"/>
<path d="M3.72643 1.60706C3.72643 2.43549 3.05486 3.10706 2.22643 3.10706C1.398 3.10706 0.726428 2.43549 0.726428 1.60706C0.726428 0.778636 1.398 0.107063 2.22643 0.107063C3.05486 0.107063 3.72643 0.778636 3.72643 1.60706Z" fill="white"/>
<path d="M3.72643 30.5001C3.72643 31.3286 3.05486 32.0001 2.22643 32.0001C1.398 32.0001 0.726428 31.3286 0.726428 30.5001C0.726428 29.6717 1.398 29.0001 2.22643 29.0001C3.05486 29.0001 3.72643 29.6717 3.72643 30.5001Z" fill="white"/>
<path d="M20.7109 1.70947C20.7109 2.5379 20.0394 3.20947 19.2109 3.20947C18.3825 3.20947 17.7109 2.5379 17.7109 1.70947C17.7109 0.881046 18.3825 0.209473 19.2109 0.209473C20.0394 0.209473 20.7109 0.881046 20.7109 1.70947Z" fill="white"/>
<path d="M20.7109 30.6025C20.7109 31.431 20.0394 32.1025 19.2109 32.1025C18.3825 32.1025 17.7109 31.431 17.7109 30.6025C17.7109 29.7741 18.3825 29.1025 19.2109 29.1025C20.0394 29.1025 20.7109 29.7741 20.7109 30.6025Z" fill="white"/>
<path d="M37.8349 1.70411C37.8349 2.53253 37.1633 3.20411 36.3349 3.20411C35.5065 3.20411 34.8349 2.53253 34.8349 1.70411C34.8349 0.875678 35.5065 0.204105 36.3349 0.204105C37.1633 0.204105 37.8349 0.875678 37.8349 1.70411Z" fill="white"/>
<path d="M37.8349 35.5C37.8349 36.3284 37.1633 37 36.3349 37C35.5065 37 34.8349 36.3284 34.8349 35.5C34.8349 34.6716 35.5065 34 36.3349 34C37.1633 34 37.8349 34.6716 37.8349 35.5Z" fill="white"/>
</svg>
