<svg width="38" height="38" viewBox="0 0 38 38" fill="none" xmlns="http://www.w3.org/2000/svg">
<g clip-path="url(#clip0_413_892)">
<path d="M28.2592 31.2728H0.590998C0.410168 31.2728 0.236745 31.201 0.10888 31.0731C-0.018986 30.9453 -0.0908203 30.7718 -0.0908203 30.591C-0.0908203 30.4102 -0.018986 30.2367 0.10888 30.1089C0.236745 29.981 0.410168 29.9092 0.590998 29.9092H28.2592C28.44 29.9092 28.6134 29.981 28.7413 30.1089C28.8692 30.2367 28.941 30.4102 28.941 30.591C28.941 30.7718 28.8692 30.9453 28.7413 31.0731C28.6134 31.201 28.44 31.2728 28.2592 31.2728Z" fill="white"/>
<path d="M33.1028 17.6361H3.31854C3.13771 17.6361 2.96428 17.5643 2.83642 17.4364C2.70855 17.3086 2.63672 17.1352 2.63672 16.9543V7.40887C2.63672 7.22804 2.70855 7.05462 2.83642 6.92675C2.96428 6.79889 3.13771 6.72705 3.31854 6.72705H21.436C21.5932 6.72722 21.7456 6.78154 21.8675 6.88087L33.5343 16.4263C33.6432 16.5153 33.722 16.6359 33.7597 16.7714C33.7974 16.9069 33.7923 17.0508 33.7451 17.1833C33.6978 17.3159 33.6107 17.4305 33.4957 17.5116C33.3808 17.5926 33.2435 17.6362 33.1028 17.6361ZM4.00036 16.2725H31.1925L21.1923 8.09069H4.00036V16.2725Z" fill="white"/>
<path d="M30.5911 21.7274H26.5002C26.3193 21.7274 26.1459 21.6556 26.0181 21.5277C25.8902 21.3998 25.8184 21.2264 25.8184 21.0456C25.8184 20.8648 25.8902 20.6913 26.0181 20.5635C26.1459 20.4356 26.3193 20.3638 26.5002 20.3638H30.5911C30.7719 20.3638 30.9453 20.4356 31.0732 20.5635C31.2011 20.6913 31.2729 20.8648 31.2729 21.0456C31.2729 21.2264 31.2011 21.3998 31.0732 21.5277C30.9453 21.6556 30.7719 21.7274 30.5911 21.7274Z" fill="white"/>
<path d="M27.8637 34H0.590998C0.410168 34 0.236745 33.9282 0.10888 33.8003C-0.018986 33.6724 -0.0908203 33.499 -0.0908203 33.3182V4.68182C-0.0908203 4.50099 -0.018986 4.32757 0.10888 4.1997C0.236745 4.07183 0.410168 4 0.590998 4H22.4092C22.5664 4.00015 22.7188 4.05447 22.8406 4.15382L37.8406 16.4265C37.9188 16.4905 37.9819 16.5711 38.0252 16.6624C38.0685 16.7537 38.0909 16.8535 38.091 16.9545V23.7727C38.091 23.9536 38.0192 24.127 37.8913 24.2548C37.7634 24.3827 37.59 24.4545 37.4092 24.4545C35.0592 24.4573 32.8063 25.392 31.1446 27.0536C29.483 28.7153 28.5483 30.9682 28.5455 33.3182C28.5455 33.499 28.4737 33.6724 28.3458 33.8003C28.218 33.9282 28.0446 34 27.8637 34ZM1.27282 32.6364H27.2045C27.3729 30.1662 28.4302 27.8406 30.1809 26.0899C31.9316 24.3392 34.2572 23.2819 36.7274 23.1135V17.2772L22.1655 5.36364H1.27282V32.6364Z" fill="white"/>
</g>
<defs>
<clipPath id="clip0_413_892">
<rect width="38" height="38" fill="white"/>
</clipPath>
</defs>
</svg>
