<svg width="73" height="73" viewBox="0 0 73 73" fill="none" xmlns="http://www.w3.org/2000/svg">
<path d="M42.7876 24H30.271C26.8131 24 24 26.8139 24 30.2729V41.7271C24 45.1861 26.8131 48 30.271 48H42.7876C46.2456 48 49.0587 45.1861 49.0587 41.7271V30.2729C49.0587 26.8139 46.2456 24 42.7876 24ZM26.2122 30.2729C26.2122 28.0345 28.0333 26.2129 30.271 26.2129H42.7876C45.0254 26.2129 46.8465 28.0345 46.8465 30.2729V41.7271C46.8465 43.9655 45.0254 45.7871 42.7876 45.7871H30.271C28.0333 45.7871 26.2122 43.9655 26.2122 41.7271V30.2729Z" fill="white"/>
<path d="M36.5294 41.8334C39.745 41.8334 42.3625 39.2165 42.3625 35.9985C42.3625 32.7806 39.7464 30.1637 36.5294 30.1637C33.3124 30.1637 30.6962 32.7806 30.6962 35.9985C30.6962 39.2165 33.3124 41.8334 36.5294 41.8334ZM36.5294 32.378C38.5262 32.378 40.1503 34.0026 40.1503 36C40.1503 37.9974 38.5262 39.6219 36.5294 39.6219C34.5326 39.6219 32.9085 37.9974 32.9085 36C32.9085 34.0026 34.5326 32.378 36.5294 32.378Z" fill="white"/>
<path d="M42.9025 31.1065C43.7684 31.1065 44.4741 30.4019 44.4741 29.5344C44.4741 28.6668 43.7698 27.9622 42.9025 27.9622C42.0351 27.9622 41.3308 28.6668 41.3308 29.5344C41.3308 30.4019 42.0351 31.1065 42.9025 31.1065Z" fill="white"/>
<circle cx="36.5" cy="36.5" r="36" stroke="white" stroke-opacity="0.25"/>
</svg>
