<svg width="38" height="38" viewBox="0 0 38 38" fill="none" xmlns="http://www.w3.org/2000/svg">
<g clip-path="url(#clip0_413_885)">
<path d="M36.8302 8.22642L29.1514 0.547629C28.7925 0.191524 28.3056 -0.0057285 27.8 0.000126729H27.7838C27.17 0.011533 26.5862 0.267262 26.1616 0.710663L24.9101 2.00117C24.0648 2.86828 24.0106 4.15711 24.7827 4.93578L24.9822 5.13615L23.6357 6.48255C22.8265 5.88517 21.8481 5.56077 20.8423 5.55629V3.12857C20.8423 0.688763 18.4357 0.688763 17.6457 0.688763H8.15481C5.2348 0.688763 4.62 2.01577 4.62 3.12857V5.63088C2.28011 6.03314 0.568788 8.06012 0.564453 10.4343V33.1228C0.567571 35.8167 2.7518 37.9991 5.44574 38H27.1398C29.9337 37.9965 32.1976 35.7326 32.2012 32.9387V16.6223C32.2013 15.5576 31.7655 14.5394 30.9951 13.8045L30.8864 13.695L32.202 12.3834L32.4372 12.6203C32.8371 13.0258 33.3294 13.2441 33.8315 13.2441H33.8404C34.19 13.2441 34.7124 13.1313 35.2088 12.622L36.8383 10.9924C37.6364 10.1691 37.6348 9.03346 36.8302 8.22642ZM6.24547 3.12857C6.24547 2.88524 6.24547 2.31097 8.15808 2.31097H17.6448C19.2192 2.31097 19.2192 2.68973 19.2192 3.12857V5.55545H6.24144L6.24547 3.12857ZM30.5789 32.9386C30.5767 34.8371 29.0382 36.3755 27.1398 36.3778H5.44574C3.64856 36.3756 2.19213 34.9191 2.18993 33.122V10.4367C2.19038 8.63796 3.64773 7.17948 5.44658 7.17765H20.8456C21.6682 7.17537 22.4572 7.50357 23.0356 8.08856L29.8636 14.966C30.3198 15.3959 30.5788 15.9946 30.5798 16.6215L30.5789 32.9386ZM29.7434 12.5456L24.8256 7.58972L26.1308 6.28462L31.0574 11.2324L29.7434 12.5456ZM35.6832 9.84863V9.85022L34.0537 11.4781C33.9976 11.5485 33.9193 11.5977 33.8315 11.6177C33.7404 11.5885 33.6571 11.5388 33.5881 11.4725L25.9352 3.79044C25.8152 3.66961 25.8412 3.36947 26.0715 3.13344L27.3287 1.84293C27.4504 1.7113 27.6185 1.63214 27.7975 1.62233C27.8721 1.61838 27.9453 1.64408 28.0011 1.69373L35.6807 9.37336C35.8601 9.551 35.8584 9.6694 35.6832 9.84863Z" fill="white"/>
<path d="M22.4589 12.0444H10.3109C8.51437 12.0462 7.05847 13.5022 7.05664 15.2986V29.0689C7.05839 30.8654 8.51437 32.3213 10.3109 32.3232H22.4589C24.2554 32.3214 25.7113 30.8654 25.7132 29.0689V15.2986C25.7113 13.5022 24.2554 12.0463 22.4589 12.0444ZM24.0909 29.0681C24.09 29.969 23.3599 30.6992 22.4589 30.7H10.3109C9.40991 30.6991 8.67976 29.969 8.67892 29.0681V15.2986C8.67983 14.3977 9.40991 13.6675 10.3109 13.6667H22.4589C23.3599 13.6676 24.09 14.3977 24.0909 15.2986V29.0681Z" fill="white"/>
</g>
<defs>
<clipPath id="clip0_413_885">
<rect width="38" height="38" fill="white"/>
</clipPath>
</defs>
</svg>
