<svg width="38" height="38" viewBox="0 0 38 38" fill="none" xmlns="http://www.w3.org/2000/svg">
<path d="M34.0333 29.2225C33.5091 28.5678 32.7302 28.1068 31.7648 27.8515C33.188 24.0751 32.3507 18.08 29.3468 10.9741C28.3046 8.94039 23.9701 8.26835 22.1514 8.07384C21.8968 8.04693 21.6359 8.02484 21.375 8.00349V6.3248H26.864C27.1637 6.32494 27.4377 6.15564 27.5717 5.88752C28.5664 3.89815 27.623 1.07693 25.6345 0.0830236C25.5247 0.0283174 25.4037 -0.000147679 25.281 5.76163e-07H12.63C12.5079 0.000148832 12.3874 0.0285397 12.2781 0.0830236C10.3172 1.0627 9.66086 3.87362 10.3013 5.78396C10.4088 6.10671 10.7107 6.32457 11.0509 6.3248H16.6269V8.00186C13.3139 8.26991 10.242 9.13728 8.85034 10.8326C8.80246 10.8915 8.76332 10.957 8.73411 11.0271C5.57464 18.5094 4.77599 24.1131 6.34794 27.698C4.94923 27.9408 4.19883 28.7552 3.83983 29.3119C2.88388 30.7929 2.98907 32.9325 4.10706 34.7629C5.50741 37.0559 8.12538 38.2499 11.051 37.951H26.8143C27.0893 37.9837 27.366 38.0001 27.643 38C31.3592 38 34.4058 35.0562 34.775 32.1077C34.9133 30.9992 34.6548 30.0006 34.0333 29.2225ZM11.6733 4.74336C11.5152 3.58422 11.916 2.15778 12.8348 1.58055H25.0771C26.041 2.17357 26.5849 3.62529 26.313 4.74336H11.6733ZM19.7913 6.3248V7.92121C19.2671 7.90698 18.7389 7.90379 18.2099 7.91728V6.3248H19.7913ZM21.9815 9.64572C25.2621 9.9976 27.1906 10.797 27.7718 11.4588L21.0454 18.1852H16.9559L10.3402 11.5679C12.2963 9.71844 17.6786 9.18316 21.9815 9.64572ZM25.4614 29.6052C23.2585 29.1079 21.1545 28.8477 19.0568 28.8477C16.9219 28.8477 14.776 29.1197 12.5296 29.6384L17.1323 19.7666H20.8699L25.4614 29.6052ZM10.3029 36.4131C7.34177 36.4637 5.93594 34.7289 5.45359 33.9398C4.66287 32.6446 4.54664 31.1304 5.16575 30.1714C5.57768 29.5325 6.30198 29.2273 7.25082 29.232C8.02493 30.2109 9.05835 30.9391 10.3029 31.3898L10.3029 36.4131ZM10.6912 29.829C9.41824 29.3293 8.46066 28.4848 7.87712 27.2671C6.48626 24.3771 7.08722 19.4859 9.60793 13.0702L15.6781 19.1435L10.6912 29.829ZM26.1153 36.372H11.8828V31.4215C16.8317 30.1342 21.1734 30.1263 26.1153 31.3954V36.372ZM27.3883 29.995L22.32 19.1435L28.4629 13.0007C31.1378 19.8623 31.6091 25.5783 29.6979 28.4587H29.6988C29.0962 29.3672 28.3016 29.8898 27.3883 29.995ZM33.2071 31.9132C32.9564 33.9129 30.7789 36.4075 27.6999 36.4202V31.5511C29.0212 31.3605 30.1827 30.592 31.0208 29.3332C31.0256 29.3253 31.0295 29.3166 31.0351 29.3087C31.8344 29.4573 32.4361 29.7538 32.8031 30.2109C33.2419 30.7636 33.2641 31.442 33.2055 31.9125L33.2071 31.9132Z" fill="white"/>
</svg>
