<svg width="48" height="48" viewBox="0 0 48 48" fill="none" xmlns="http://www.w3.org/2000/svg">
<rect width="48" height="48" rx="24" fill="white" fill-opacity="0.2"/>
<path fill-rule="evenodd" clip-rule="evenodd" d="M22.4659 19.9239C22.4947 19.8663 22.5536 19.8299 22.618 19.8299H25.3819C25.4463 19.8299 25.5051 19.8663 25.5339 19.9239L26.2575 21.3711C26.3981 21.6523 26.6855 21.8299 26.9999 21.8299H29.9999C30.0938 21.8299 30.1699 21.906 30.1699 21.9999V27.9999C30.1699 28.6461 29.6461 29.1699 28.9999 29.1699H18.9999C18.3537 29.1699 17.8299 28.6461 17.8299 27.9999V21.9999C17.8299 21.906 17.906 21.8299 17.9999 21.8299H20.9999C21.3143 21.8299 21.6017 21.6523 21.7423 21.3711L22.4659 19.9239ZM22.618 18.1699C21.9248 18.1699 21.2911 18.5615 20.9812 19.1815L20.487 20.1699H17.9999C16.9892 20.1699 16.1699 20.9892 16.1699 21.9999V27.9999C16.1699 29.5629 17.437 30.8299 18.9999 30.8299H28.9999C30.5629 30.8299 31.8299 29.5629 31.8299 27.9999V21.9999C31.8299 20.9892 31.0106 20.1699 29.9999 20.1699H27.5129L27.0187 19.1815C26.7087 18.5615 26.075 18.1699 25.3819 18.1699H22.618ZM23.9999 22.1699C23.5415 22.1699 23.1699 22.5415 23.1699 22.9999C23.1699 23.4583 23.5415 23.8299 23.9999 23.8299C24.6461 23.8299 25.1699 24.3537 25.1699 24.9999C25.1699 25.6461 24.6461 26.1699 23.9999 26.1699C23.3537 26.1699 22.8299 25.6461 22.8299 24.9999C22.8299 24.8183 22.8707 24.6485 22.9429 24.4972C23.1403 24.0835 22.9649 23.5881 22.5512 23.3907C22.1375 23.1933 21.6421 23.3687 21.4447 23.7824C21.2683 24.1522 21.1699 24.5657 21.1699 24.9999C21.1699 26.5629 22.437 27.8299 23.9999 27.8299C25.5629 27.8299 26.8299 26.5629 26.8299 24.9999C26.8299 23.437 25.5629 22.1699 23.9999 22.1699Z" fill="#7D7E7F"/>
</svg>
