<svg width="73" height="73" viewBox="0 0 73 73" fill="none" xmlns="http://www.w3.org/2000/svg">
<circle cx="36.5" cy="36.5" r="36" stroke="white" stroke-opacity="0.25"/>
<path d="M22.7617 34.9403C22.8283 34.907 22.8949 34.8753 22.9598 34.8453C24.0883 34.3225 25.2319 33.833 26.3737 33.3435C26.4353 33.3435 26.5385 33.2719 26.5967 33.2486C26.6849 33.2103 26.7732 33.1737 26.8614 33.1354C27.0312 33.0621 27.201 32.9905 27.3691 32.9173C27.7086 32.7724 28.0465 32.6276 28.3861 32.4827C29.0635 32.193 29.741 31.9033 30.4184 31.6119C31.7733 31.0325 33.1299 30.4514 34.4848 29.872C35.8397 29.2926 37.1963 28.7115 38.5512 28.1321C39.9061 27.5527 41.2627 26.9716 42.6176 26.3922C43.9725 25.8127 45.3291 25.2317 46.684 24.6522C46.9853 24.5224 47.3115 24.3292 47.6344 24.2726C47.9057 24.2243 48.1704 24.1311 48.4434 24.0795C48.961 23.9813 49.5319 23.9413 50.028 24.1561C50.1994 24.231 50.3575 24.3359 50.489 24.4674C51.1182 25.0901 51.03 26.1125 50.8968 26.9882C49.9697 33.0921 49.0426 39.1977 48.1138 45.3015C47.9873 46.139 47.8142 47.0581 47.1534 47.5876C46.5941 48.0355 45.7985 48.0854 45.1077 47.8956C44.4169 47.7041 43.8077 47.3028 43.2102 46.9082C40.7317 45.2666 38.2516 43.6249 35.7732 41.9832C35.1839 41.5936 34.5281 41.0841 34.5348 40.3765C34.5381 39.9502 34.7928 39.5706 35.0524 39.2326C37.2063 36.4221 40.3139 34.4907 42.6259 31.8101C42.9522 31.4321 43.2085 30.7495 42.7608 30.5314C42.4944 30.4015 42.1881 30.5779 41.9451 30.7461C38.8891 32.869 35.8348 34.9935 32.7787 37.1164C31.7817 37.809 30.7364 38.5216 29.5346 38.6915C28.4593 38.8446 27.3774 38.545 26.3371 38.2386C25.4649 37.9822 24.5943 37.7191 23.7271 37.4477C23.266 37.3045 22.79 37.1497 22.4338 36.825C22.0776 36.5003 21.8729 35.9542 22.0876 35.5213C22.2224 35.25 22.4838 35.0785 22.7584 34.9386L22.7617 34.9403Z" fill="white"/>
</svg>
