<svg width="22" height="23" viewBox="0 0 22 23" fill="none" xmlns="http://www.w3.org/2000/svg">
<path d="M21 15H22V16H21V15ZM0.292894 15.7071C-0.0976315 15.3166 -0.0976315 14.6834 0.292894 14.2929L6.65685 7.92893C7.04738 7.53841 7.68054 7.53841 8.07107 7.92893C8.46159 8.31946 8.46159 8.95262 8.07107 9.34315L2.41421 15L8.07107 20.6569C8.46159 21.0474 8.46159 21.6805 8.07107 22.0711C7.68054 22.4616 7.04738 22.4616 6.65685 22.0711L0.292894 15.7071ZM22 0V15H20V0H22ZM21 16H1V14H21V16Z" fill="white"/>
</svg>
