<svg width="73" height="73" viewBox="0 0 73 73" fill="none" xmlns="http://www.w3.org/2000/svg">
<circle cx="36.5" cy="36.5" r="36" stroke="white" stroke-opacity="0.25"/>
<path d="M39.593 40.9998C34.8777 40.9998 31.0414 37.1611 31.0401 32.4444C31.0414 31.2487 32.0146 30.2765 33.2073 30.2765C33.33 30.2765 33.4513 30.2868 33.5675 30.3075C33.8231 30.3501 34.0657 30.4366 34.289 30.567C34.3213 30.5864 34.3433 30.6174 34.3484 30.6535L34.8467 33.795C34.8531 33.8311 34.8415 33.8686 34.817 33.8957C34.542 34.2004 34.1909 34.4199 33.7998 34.5297L33.6114 34.5826L33.6824 34.7646C34.3252 36.4019 35.6341 37.7099 37.2721 38.3554L37.4541 38.4277L37.507 38.2392C37.6167 37.848 37.8362 37.4968 38.1408 37.2218C38.1628 37.2011 38.1924 37.1908 38.2221 37.1908C38.2286 37.1908 38.235 37.1908 38.2428 37.1921L41.3833 37.6905C41.4208 37.6969 41.4517 37.7176 41.4711 37.7499C41.6002 37.9732 41.6867 38.2173 41.7306 38.4729C41.7512 38.5866 41.7602 38.7066 41.7602 38.8319C41.7602 40.0262 40.7883 40.9985 39.593 40.9998Z" fill="white"/>
<path d="M47.9548 34.5748C47.7005 31.7006 46.3839 29.0343 44.2476 27.0679C42.0984 25.0898 39.3103 24 36.3943 24C29.9945 24 24.7874 29.2087 24.7874 35.6104C24.7874 37.7589 25.3799 39.8519 26.5016 41.6751L24 47.2143L32.0095 46.3608C33.4023 46.9315 34.8763 47.2207 36.393 47.2207C36.7919 47.2207 37.2011 47.2001 37.6116 47.1575C37.973 47.1187 38.3383 47.0619 38.6972 46.9896C44.0566 45.9063 47.969 41.1483 48 35.6723V35.6104C48 35.2617 47.9845 34.9131 47.9535 34.5761L47.9548 34.5748ZM32.318 43.9295L27.8866 44.4021L29.2097 41.4698L28.9451 41.1147C28.9257 41.0889 28.9064 41.0631 28.8844 41.0334C27.7356 39.4465 27.1289 37.5717 27.1289 35.6117C27.1289 30.5011 31.2853 26.3435 36.3943 26.3435C41.1807 26.3435 45.2377 30.0789 45.6288 34.8473C45.6494 35.1029 45.6611 35.3599 45.6611 35.613C45.6611 35.6853 45.6598 35.7563 45.6585 35.8324C45.5604 40.1076 42.5747 43.7384 38.3977 44.6629C38.0788 44.7339 37.7523 44.7881 37.427 44.823C37.0888 44.8617 36.7416 44.8811 36.3969 44.8811C35.1694 44.8811 33.9767 44.6435 32.8498 44.1735C32.7246 44.1232 32.6019 44.0689 32.4871 44.0134L32.3193 43.9321L32.318 43.9295Z" fill="white"/>
</svg>
